<svg width="94" height="83" viewBox="0 0 94 83" xmlns="http://www.w3.org/2000/svg">
<g>
<path d="M24.4163 32.8198C24.4163 16.3927 52.325 7.05517 60.6942 11.8968C69.0979 16.7385 69.0288 48.9702 60.6942 53.7773C52.325 58.6189 24.4163 49.2814 24.4163 32.8198Z" fill="url(#paint0_linear_516_53)"/>
<path d="M24.4163 32.8198C24.4163 16.3927 52.325 7.05517 60.6942 11.8968C69.0979 16.7385 69.0288 48.9702 60.6942 53.7773C52.325 58.6189 24.4163 49.2814 24.4163 32.8198Z" fill="white" fill-opacity="0.5"/>
<path d="M64.3275 67.6027C60.0392 67.6027 55.6817 64.6285 55.6817 58.9568C55.6817 55.4293 57.5838 52.5243 60.4888 51.141L52.085 19.4972C47.4508 19.4281 43.5429 19.5318 39.9117 19.8085L39.635 16.3502C43.7158 16.0389 48.0733 15.9352 53.4338 16.0389L54.7479 16.0735L63.8088 50.311C68.8579 50.0689 72.9388 53.8385 72.9388 58.9568C72.9733 63.9022 69.2383 67.6027 64.3275 67.6027ZM64.3275 53.7693C61.3188 53.7693 59.14 55.9481 59.14 58.9568C59.14 62.7956 61.9413 64.1443 64.3275 64.1443C67.3363 64.1443 69.515 61.9656 69.515 58.9568C69.515 55.9481 67.3363 53.7693 64.3275 53.7693ZM19.6458 67.6027C15.3575 67.6027 11 64.6285 11 58.9568C11 54.0114 14.7004 50.311 19.6458 50.311C23.9688 50.311 27.3579 53.1814 28.1187 57.2277H38.0788C42.0558 57.2277 43.9233 56.4668 46.7938 53.7693C49.2492 51.4177 51.6008 48.9277 53.7796 46.3339L56.4425 48.5472C54.1946 51.2447 51.7392 53.8385 49.18 56.2593C45.6525 59.6139 42.955 60.686 38.0788 60.686H28.1533C27.3925 64.7322 24.0033 67.6027 19.6458 67.6027ZM19.6458 53.7693C16.6371 53.7693 14.4583 55.9481 14.4583 58.9568C14.4583 62.7956 17.2596 64.1443 19.6458 64.1443C22.6546 64.1443 24.8333 61.9656 24.8333 58.9568C24.8333 55.9481 22.6546 53.7693 19.6458 53.7693ZM63.3937 24.1314H61.1458C59.9008 24.1314 58.8633 23.1285 58.8633 21.8489C58.8633 20.6039 59.8662 19.601 61.1458 19.601H63.3937V24.1314Z" fill="#21201F"/>
<path d="M78.1241 16.4158L67.6919 5.53254L69.4179 3.74031L79.8755 14.6236L78.1241 16.4158ZM69.4179 16.4158L67.6919 14.6236L78.1749 3.74031L79.8755 5.53254L69.4179 16.4158Z" fill="#21201F"/>
<path d="M84.8656 10.5975V7.79231H87.2008C87.7761 7.79231 88.2753 7.69707 88.6984 7.50659C89.1214 7.2988 89.4514 7.00442 89.6883 6.62346C89.9252 6.22519 90.0436 5.74899 90.0436 5.19487C90.0436 4.67538 89.9252 4.23382 89.6883 3.87018C89.4683 3.50654 89.1383 3.22948 88.6984 3.039C88.2584 2.8312 87.7169 2.72731 87.0739 2.72731C86.2786 2.72731 85.5171 2.87449 84.7895 3.16887C84.0787 3.44593 83.3173 3.90481 82.505 4.54551V1.53249C82.9788 1.18616 83.4696 0.900444 83.9772 0.675333C84.4849 0.450221 85.0348 0.285717 85.6271 0.18182C86.2193 0.0606066 86.8539 0 87.5308 0C88.7153 0 89.7391 0.207795 90.6021 0.623385C91.4651 1.03897 92.1335 1.61907 92.6073 2.36367C93.0811 3.10827 93.318 3.96542 93.318 4.93513C93.318 5.55851 93.208 6.12129 92.988 6.62346C92.768 7.12563 92.4804 7.54988 92.125 7.89621C91.7697 8.24253 91.3635 8.51959 90.9067 8.72739C90.4498 8.93518 89.9844 9.06505 89.5106 9.117V9.0131C90.086 9.06505 90.6359 9.20358 91.1605 9.42869C91.702 9.63649 92.1842 9.93086 92.6073 10.3118C93.0303 10.6928 93.3603 11.1517 93.5972 11.6885C93.851 12.2253 93.9779 12.84 93.9779 13.5326C93.9779 14.6582 93.6987 15.6452 93.1403 16.4937C92.5819 17.3249 91.8035 17.9743 90.8051 18.4418C89.8067 18.892 88.6391 19.1171 87.3023 19.1171C86.6255 19.1171 85.974 19.0565 85.3479 18.9353C84.7218 18.8314 84.138 18.6669 83.5965 18.4418C83.055 18.1994 82.5558 17.9137 82.0989 17.5846V14.5716C82.8942 15.195 83.6895 15.6539 84.4849 15.9483C85.2802 16.2426 86.1347 16.3898 87.0485 16.3898C87.8269 16.3898 88.4784 16.2686 89.003 16.0262C89.5275 15.7838 89.9167 15.4461 90.1706 15.0132C90.4413 14.563 90.5767 14.0262 90.5767 13.4028C90.5767 12.7794 90.4498 12.2599 90.1959 11.8443C89.9421 11.4287 89.5614 11.117 89.0537 10.9092C88.5461 10.7014 87.8946 10.5975 87.0993 10.5975H84.8656Z" fill="#21201F"/>
<defs>
<linearGradient id="paint0_linear_516_53" x1="24.4163" y1="32.8369" x2="66.9711" y2="32.8369" gradientUnits="userSpaceOnUse">
<stop stop-color="#FF5C4D"/>
<stop offset="0.25" stop-color="#EB469F"/>
<stop offset="0.72" stop-color="#8341EF"/>
<stop offset="1" stop-color="#3F68F9"/>
</linearGradient>
</defs>
</g>
</svg>
